<mxfile host="app.diagrams.net" modified="2023-10-31T16:36:31.707Z" agent="Mozilla/5.0 (Macintosh; Intel Mac OS X 10_15_7) AppleWebKit/605.1.15 (KHTML, like Gecko) Version/15.5 Safari/605.1.15" etag="36LtCYI4odkhC8J2-fiW" version="22.0.8" type="device">
  <diagram name="Page-1" id="_aWhuLOV3h3mHC6hKcSR">
    <mxGraphModel dx="1590" dy="1078" grid="1" gridSize="10" guides="1" tooltips="1" connect="1" arrows="1" fold="1" page="1" pageScale="1" pageWidth="1169" pageHeight="827" math="0" shadow="0">
      <root>
        <mxCell id="0" />
        <mxCell id="1" parent="0" />
        <mxCell id="t2xBNFNoJKbGuM0S6oyh-2" value="" style="verticalLabelPosition=bottom;verticalAlign=top;html=1;shape=mxgraph.basic.rect;fillColor2=none;strokeWidth=1;size=20;indent=5;" vertex="1" parent="1">
          <mxGeometry width="1160" height="120" as="geometry" />
        </mxCell>
        <mxCell id="t2xBNFNoJKbGuM0S6oyh-3" value="" style="verticalLabelPosition=bottom;verticalAlign=top;html=1;shape=mxgraph.basic.rect;fillColor2=none;strokeWidth=1;size=20;indent=5;" vertex="1" parent="1">
          <mxGeometry y="728.5" width="1169" height="91.5" as="geometry" />
        </mxCell>
        <mxCell id="t2xBNFNoJKbGuM0S6oyh-4" value="" style="verticalLabelPosition=bottom;shadow=0;dashed=0;align=center;html=1;verticalAlign=top;strokeWidth=1;shape=mxgraph.mockup.graphics.simpleIcon;strokeColor=#999999;" vertex="1" parent="1">
          <mxGeometry x="19" y="749.25" width="50" height="50" as="geometry" />
        </mxCell>
        <mxCell id="t2xBNFNoJKbGuM0S6oyh-5" value="" style="verticalLabelPosition=bottom;shadow=0;dashed=0;align=center;html=1;verticalAlign=top;strokeWidth=1;shape=mxgraph.mockup.graphics.simpleIcon;strokeColor=#999999;" vertex="1" parent="1">
          <mxGeometry x="1099" y="747" width="50" height="50" as="geometry" />
        </mxCell>
        <mxCell id="t2xBNFNoJKbGuM0S6oyh-6" value="" style="verticalLabelPosition=bottom;shadow=0;dashed=0;align=center;html=1;verticalAlign=top;strokeWidth=1;shape=mxgraph.mockup.graphics.simpleIcon;strokeColor=#999999;" vertex="1" parent="1">
          <mxGeometry x="20" y="20" width="80" height="80" as="geometry" />
        </mxCell>
        <mxCell id="t2xBNFNoJKbGuM0S6oyh-8" value="Home" style="text;html=1;strokeColor=none;fillColor=none;align=center;verticalAlign=middle;whiteSpace=wrap;rounded=0;fontSize=30;" vertex="1" parent="1">
          <mxGeometry x="120" y="32.5" width="110" height="55" as="geometry" />
        </mxCell>
        <mxCell id="t2xBNFNoJKbGuM0S6oyh-9" value="&lt;font style=&quot;font-size: 33px;&quot;&gt;Back&lt;/font&gt;" style="text;html=1;strokeColor=none;fillColor=none;align=center;verticalAlign=middle;whiteSpace=wrap;rounded=0;" vertex="1" parent="1">
          <mxGeometry x="60" y="729.25" width="170" height="90.75" as="geometry" />
        </mxCell>
        <mxCell id="t2xBNFNoJKbGuM0S6oyh-10" value="&lt;span style=&quot;font-size: 33px;&quot;&gt;Next&lt;/span&gt;" style="text;html=1;strokeColor=none;fillColor=none;align=center;verticalAlign=middle;whiteSpace=wrap;rounded=0;" vertex="1" parent="1">
          <mxGeometry x="940" y="727" width="170" height="93" as="geometry" />
        </mxCell>
        <mxCell id="t2xBNFNoJKbGuM0S6oyh-11" value="&lt;font style=&quot;font-size: 33px;&quot;&gt;About us&lt;/font&gt;" style="text;html=1;strokeColor=none;fillColor=none;align=center;verticalAlign=middle;whiteSpace=wrap;rounded=0;" vertex="1" parent="1">
          <mxGeometry x="950" y="5" width="170" height="110" as="geometry" />
        </mxCell>
        <mxCell id="t2xBNFNoJKbGuM0S6oyh-16" value="Title" style="text;html=1;strokeColor=none;fillColor=none;align=center;verticalAlign=middle;whiteSpace=wrap;rounded=0;fontSize=50;" vertex="1" parent="1">
          <mxGeometry x="87.5" y="160" width="115" height="90" as="geometry" />
        </mxCell>
        <mxCell id="t2xBNFNoJKbGuM0S6oyh-17" value="" style="shape=document;whiteSpace=wrap;html=1;boundedLbl=1;" vertex="1" parent="1">
          <mxGeometry x="870" y="120" width="290" height="200" as="geometry" />
        </mxCell>
        <mxCell id="t2xBNFNoJKbGuM0S6oyh-18" value="Placeholder?" style="text;html=1;strokeColor=none;fillColor=none;align=center;verticalAlign=middle;whiteSpace=wrap;rounded=0;fontSize=40;" vertex="1" parent="1">
          <mxGeometry x="935" y="170" width="160" height="50" as="geometry" />
        </mxCell>
        <mxCell id="t2xBNFNoJKbGuM0S6oyh-19" value="Sub title/heading" style="text;html=1;strokeColor=none;fillColor=none;align=center;verticalAlign=middle;whiteSpace=wrap;rounded=0;fontSize=20;" vertex="1" parent="1">
          <mxGeometry x="110" y="240" width="200" height="30" as="geometry" />
        </mxCell>
        <mxCell id="t2xBNFNoJKbGuM0S6oyh-20" value="" style="verticalLabelPosition=bottom;shadow=0;dashed=0;align=center;html=1;verticalAlign=top;strokeWidth=1;shape=mxgraph.mockup.graphics.simpleIcon;strokeColor=#999999;" vertex="1" parent="1">
          <mxGeometry x="70" y="330" width="810" height="340" as="geometry" />
        </mxCell>
        <mxCell id="t2xBNFNoJKbGuM0S6oyh-21" value="Content" style="text;html=1;strokeColor=none;fillColor=none;align=center;verticalAlign=middle;whiteSpace=wrap;rounded=0;fontSize=70;" vertex="1" parent="1">
          <mxGeometry x="295" y="370" width="360" height="240" as="geometry" />
        </mxCell>
      </root>
    </mxGraphModel>
  </diagram>
</mxfile>
